<svg width="35.000000" height="11.000000" viewBox="0 0 35 11" fill="none" xmlns="http://www.w3.org/2000/svg" xmlns:xlink="http://www.w3.org/1999/xlink">
	<desc>
			Created with Pixso.
	</desc>
	<defs/>
	<path id="Blog" d="M25.21 4.06L25.21 5.28Q25.2 5.85 25.11 6.43Q25.02 7.01 24.83 7.56Q24.64 8.1 24.34 8.57Q24.1 8.94 23.79 9.24Q23.72 9.32 23.63 9.39Q23.6 9.42 23.56 9.45Q23.18 9.76 22.69 9.94Q22.16 10.14 21.5 10.14Q20.84 10.14 20.31 9.94Q19.83 9.76 19.44 9.45Q19.41 9.42 19.37 9.39Q19.33 9.35 19.29 9.32Q18.93 8.99 18.66 8.56Q18.66 8.56 18.66 8.56Q18.36 8.09 18.17 7.55Q18.16 7.53 18.16 7.51Q17.97 6.99 17.88 6.43Q17.78 5.85 17.77 5.28L17.77 4.06Q17.78 3.49 17.87 2.91Q17.96 2.33 18.16 1.78Q18.35 1.24 18.65 0.77Q18.88 0.4 19.18 0.11Q19.26 0.02 19.36 -0.06Q19.39 -0.09 19.43 -0.12Q19.81 -0.43 20.3 -0.61Q20.83 -0.82 21.49 -0.82Q22.15 -0.82 22.68 -0.61Q23.19 -0.42 23.59 -0.09Q23.61 -0.08 23.63 -0.06Q23.69 -0.01 23.75 0.05Q24.08 0.36 24.33 0.76Q24.63 1.24 24.83 1.78Q25.02 2.32 25.11 2.91Q25.2 3.49 25.21 4.06ZM34.65 4.68L34.67 8.6Q34.42 8.89 34.15 9.13Q33.87 9.37 33.57 9.54Q33.45 9.61 33.33 9.67Q32.92 9.88 32.46 10Q31.87 10.15 31.22 10.14Q30.56 10.13 30 9.94Q29.48 9.76 29.06 9.44Q29.03 9.42 29.01 9.4Q28.91 9.32 28.82 9.24Q28.5 8.96 28.24 8.6Q27.91 8.14 27.69 7.6Q27.47 7.07 27.35 6.48Q27.3 6.19 27.27 5.9Q27.24 5.59 27.23 5.29L27.23 4.05Q27.23 3.94 27.24 3.84Q27.26 3.35 27.34 2.86Q27.44 2.28 27.64 1.73Q27.85 1.19 28.15 0.73Q28.34 0.45 28.56 0.22Q28.72 0.06 28.89 -0.08Q29.32 -0.42 29.86 -0.62Q30.4 -0.82 31.08 -0.82Q31.82 -0.82 32.45 -0.58Q33.02 -0.38 33.45 -0.02Q33.5 0.02 33.55 0.07Q33.64 0.15 33.72 0.23Q34.07 0.61 34.31 1.11Q34.59 1.71 34.66 2.46L33.32 2.46Q33.24 2 33.07 1.61Q32.9 1.21 32.63 0.93Q32.57 0.88 32.51 0.83Q32.27 0.62 31.97 0.5Q31.59 0.34 31.08 0.34Q30.6 0.34 30.23 0.51Q29.94 0.63 29.71 0.83Q29.64 0.88 29.58 0.95Q29.56 0.97 29.54 0.98Q29.29 1.25 29.11 1.6Q28.93 1.97 28.81 2.38Q28.77 2.53 28.74 2.69Q28.68 2.95 28.65 3.21Q28.59 3.64 28.59 4.03L28.59 5.29Q28.6 5.69 28.66 6.12Q28.71 6.41 28.78 6.69Q28.82 6.82 28.86 6.96Q28.99 7.37 29.19 7.73Q29.38 8.07 29.64 8.33Q29.67 8.35 29.69 8.38Q29.75 8.43 29.81 8.48Q30.05 8.69 30.36 8.82Q30.74 8.98 31.22 8.99Q31.5 9 31.81 8.97Q32.11 8.94 32.4 8.85Q32.67 8.77 32.91 8.63Q32.92 8.62 32.93 8.61Q33.04 8.55 33.13 8.47Q33.25 8.36 33.35 8.22L33.36 5.83L31.19 5.83L31.19 4.68L34.65 4.68ZM2.67 10L-0.75 10L-0.75 -0.67L2.43 -0.67Q2.89 -0.66 3.34 -0.58Q3.53 -0.55 3.72 -0.5Q4.35 -0.33 4.84 0.01Q5.04 0.16 5.21 0.33Q5.45 0.58 5.62 0.89Q5.91 1.43 5.91 2.17Q5.9 2.59 5.77 2.93Q5.64 3.27 5.43 3.54Q5.43 3.54 5.42 3.55Q5.19 3.83 4.92 4.02Q4.65 4.21 4.26 4.38L4.26 4.4Q4.66 4.49 5.03 4.74Q5.41 4.99 5.65 5.29Q5.68 5.34 5.71 5.38Q5.92 5.68 6.05 6.03Q6.19 6.44 6.19 6.92Q6.2 7.67 5.91 8.24Q5.71 8.62 5.42 8.92Q5.28 9.07 5.12 9.19Q4.63 9.58 3.99 9.78Q3.76 9.86 3.52 9.91Q3.1 9.99 2.67 10ZM10.3 -0.67L10.3 8.85L15.52 8.85L15.52 10L8.95 10L8.95 -0.67L10.3 -0.67ZM23.87 5.28L23.87 4.05Q23.86 3.67 23.82 3.25Q23.77 2.84 23.67 2.43Q23.56 2.03 23.38 1.66Q23.21 1.29 22.95 1Q22.87 0.92 22.78 0.85Q22.58 0.67 22.32 0.56Q21.96 0.39 21.49 0.39Q21.02 0.39 20.66 0.56Q20.39 0.69 20.18 0.87Q20.11 0.94 20.04 1.01Q19.77 1.29 19.6 1.66Q19.58 1.7 19.56 1.74Q19.41 2.08 19.32 2.44Q19.21 2.85 19.16 3.26Q19.11 3.67 19.11 4.05L19.11 5.28Q19.11 5.65 19.16 6.07Q19.2 6.39 19.27 6.7Q19.29 6.8 19.32 6.89Q19.43 7.3 19.61 7.67Q19.78 8.05 20.04 8.33Q20.14 8.43 20.25 8.52Q20.44 8.67 20.67 8.78Q21.03 8.95 21.5 8.95Q21.98 8.95 22.34 8.78Q22.59 8.66 22.79 8.49Q22.88 8.42 22.97 8.33Q23.22 8.05 23.4 7.68Q23.57 7.31 23.68 6.9Q23.69 6.85 23.7 6.8Q23.78 6.44 23.82 6.08Q23.86 5.66 23.87 5.28ZM0.62 0.49L0.62 3.88L2.51 3.88Q2.67 3.88 2.82 3.85Q3.04 3.82 3.25 3.76Q3.61 3.65 3.9 3.43Q3.9 3.43 3.91 3.43Q4.03 3.33 4.13 3.23Q4.27 3.08 4.37 2.9Q4.54 2.58 4.54 2.17Q4.54 1.72 4.37 1.4Q4.27 1.21 4.12 1.06Q4.03 0.96 3.91 0.88Q3.62 0.69 3.24 0.59Q3.17 0.57 3.11 0.56Q2.79 0.49 2.47 0.49L0.62 0.49ZM2.78 5.01L0.62 5.01L0.62 8.85L2.7 8.85Q3.11 8.84 3.48 8.71Q3.5 8.71 3.51 8.7Q3.89 8.57 4.18 8.33Q4.28 8.24 4.37 8.15Q4.53 7.97 4.65 7.73Q4.82 7.38 4.82 6.93Q4.83 6.48 4.67 6.13Q4.56 5.89 4.4 5.7Q4.32 5.61 4.24 5.53L4.23 5.53Q3.96 5.29 3.58 5.15Q3.21 5.02 2.78 5.01Z" fill="#191919" fill-opacity="1.000000" fill-rule="evenodd"/>
</svg>
