<svg width="132.000000" height="35.000000" viewBox="0 0 132 35" fill="none" xmlns="http://www.w3.org/2000/svg" xmlns:xlink="http://www.w3.org/1999/xlink">
	<desc>
			Created with Pixso.
	</desc>
	<defs/>
	<rect id="Button" rx="6.000000" width="132.000000" height="35.000000" fill="#191919" fill-opacity="1.000000"/>
	<path id="Button" d="M51.39 11.58L51.39 12.66Q51.39 13 51.31 13.39Q51.22 13.77 51.06 14.13Q50.98 14.3 50.89 14.46Q50.79 14.66 50.66 14.84Q50.49 15.08 50.29 15.28Q50.21 15.36 50.12 15.44L49.38 14.92Q49.72 14.4 49.89 13.85Q50.06 13.31 50.06 12.68L50.06 11.58L51.39 11.58ZM62.67 21.06Q62.86 20.74 62.86 20.3Q62.86 19.81 62.63 19.47Q62.58 19.4 62.53 19.33Q62.33 19.08 62.06 18.9Q61.71 18.67 61.29 18.52Q60.86 18.37 60.48 18.24Q59.91 18.06 59.33 17.8Q58.75 17.54 58.27 17.17Q57.93 16.91 57.67 16.57Q57.57 16.44 57.48 16.29Q57.48 16.29 57.48 16.28Q57.18 15.77 57.18 15.09Q57.18 14.48 57.42 13.99Q57.45 13.92 57.48 13.86Q57.65 13.57 57.87 13.32Q58.06 13.12 58.28 12.95Q58.3 12.93 58.33 12.91Q58.8 12.56 59.39 12.38Q59.94 12.21 60.49 12.19Q60.57 12.18 60.64 12.18Q61.09 12.18 61.51 12.28Q61.75 12.33 61.98 12.42Q62.57 12.63 63.04 12.99Q63.08 13.03 63.13 13.06Q63.31 13.21 63.46 13.39Q63.73 13.69 63.93 14.07Q63.94 14.09 63.94 14.11Q64.23 14.69 64.24 15.4L62.85 15.4Q62.79 14.94 62.62 14.56Q62.47 14.21 62.22 13.96Q62.2 13.93 62.18 13.91Q62.14 13.88 62.1 13.85Q61.85 13.62 61.51 13.49Q61.13 13.34 60.64 13.34Q60.42 13.34 60.21 13.38Q60.04 13.4 59.89 13.45Q59.52 13.56 59.23 13.78L59.23 13.78Q59.08 13.89 58.96 14.03Q58.85 14.17 58.77 14.32Q58.59 14.65 58.59 15.07Q58.6 15.5 58.8 15.81Q58.81 15.83 58.83 15.85Q58.86 15.89 58.89 15.93Q59.1 16.2 59.41 16.39Q59.75 16.61 60.16 16.75Q60.56 16.9 60.92 17.01Q61.52 17.19 62.11 17.45Q62.56 17.65 62.96 17.94Q63.08 18.02 63.19 18.12Q63.4 18.28 63.58 18.47Q63.8 18.73 63.97 19.03Q64.27 19.57 64.27 20.29Q64.27 20.98 63.97 21.51Q63.96 21.52 63.95 21.54Q63.77 21.84 63.53 22.08Q63.35 22.27 63.13 22.42Q62.62 22.78 61.98 22.96Q61.35 23.14 60.71 23.14Q60.49 23.14 60.26 23.12Q59.73 23.07 59.21 22.89Q58.51 22.64 57.99 22.19Q57.96 22.17 57.93 22.15Q57.64 21.89 57.41 21.57Q57.28 21.38 57.17 21.17Q57.16 21.16 57.16 21.15Q56.89 20.6 56.87 19.92L58.25 19.92Q58.32 20.42 58.52 20.8Q58.68 21.11 58.92 21.33Q58.98 21.39 59.05 21.45Q59.1 21.5 59.16 21.54Q59.44 21.74 59.79 21.86Q60.21 21.99 60.71 21.99Q60.88 21.99 61.06 21.97Q61.27 21.95 61.49 21.89Q61.87 21.79 62.18 21.58Q62.29 21.5 62.39 21.4Q62.55 21.25 62.67 21.06ZM18.8 12.33L18.8 21.85L24.02 21.85L24.02 23L17.45 23L17.45 12.33L18.8 12.33ZM33.14 16.92L33.14 18.07L28.68 18.07L28.68 21.85L33.88 21.85L33.88 23L27.33 23L27.33 12.33L33.81 12.33L33.81 13.49L28.68 13.49L28.68 16.92L33.14 16.92ZM44.46 12.33L44.46 13.49L41.17 13.49L41.17 23L39.85 23L39.85 13.49L36.55 13.49L36.55 12.33L44.46 12.33ZM84.47 12.33L84.47 13.49L81.17 13.49L81.17 23L79.86 23L79.86 13.49L76.56 13.49L76.56 12.33L84.47 12.33ZM93.21 23L92.37 20.23L88.81 20.23L87.95 23L86.6 23L90.04 12.33L91.18 12.33L94.56 23L93.21 23ZM98.81 12.33L98.81 21.85L104.03 21.85L104.03 23L97.46 23L97.46 12.33L98.81 12.33ZM113.06 23L109.84 18.04L108.65 19.39L108.65 23L107.27 23L107.27 12.33L108.65 12.33L108.65 17.54L109.69 16.25L112.81 12.33L114.46 12.33L110.73 17L114.71 23L113.06 23ZM90.6 14.43L89.18 19.05L92.01 19.05L90.6 14.43Z" fill="#FDFBF5" fill-opacity="1.000000" fill-rule="evenodd"/>
</svg>
