<svg width="37.000000" height="11.000000" viewBox="0 0 37 11" fill="none" xmlns="http://www.w3.org/2000/svg" xmlns:xlink="http://www.w3.org/1999/xlink">
	<desc>
			Created with Pixso.
	</desc>
	<defs/>
	<path id="WORK" d="M16.71 4.06L16.71 5.28Q16.7 5.85 16.61 6.43Q16.52 7.01 16.33 7.56Q16.14 8.1 15.84 8.57Q15.6 8.94 15.29 9.24Q15.21 9.32 15.13 9.39Q15.1 9.42 15.06 9.45Q14.68 9.76 14.19 9.94Q13.66 10.14 13 10.14Q12.34 10.14 11.81 9.94Q11.33 9.76 10.94 9.45Q10.91 9.42 10.87 9.39Q10.83 9.35 10.79 9.32Q10.43 8.99 10.16 8.56Q10.16 8.56 10.15 8.56Q9.86 8.09 9.67 7.55Q9.66 7.53 9.65 7.51Q9.47 6.99 9.38 6.43Q9.28 5.85 9.27 5.28L9.27 4.06Q9.28 3.49 9.37 2.91Q9.46 2.33 9.66 1.78Q9.85 1.24 10.15 0.77Q10.38 0.4 10.68 0.11Q10.76 0.02 10.85 -0.06Q10.89 -0.09 10.93 -0.12Q11.31 -0.43 11.8 -0.61Q12.33 -0.82 12.99 -0.82Q13.65 -0.82 14.18 -0.61Q14.69 -0.42 15.09 -0.09Q15.11 -0.08 15.12 -0.06Q15.19 -0.01 15.24 0.05Q15.58 0.36 15.83 0.76Q16.13 1.24 16.33 1.78Q16.52 2.32 16.61 2.91Q16.7 3.49 16.71 4.06ZM2.22 10L0.83 10L-0.47 -0.67L0.82 -0.67L1.59 6.68L1.63 7.11L1.71 6.67L3 -0.67L4.18 -0.67L5.48 6.68L5.56 7.11L5.6 6.67L6.37 -0.67L7.65 -0.67L6.36 10L4.97 10L3.68 2.41L3.6 1.96L3.52 2.41L2.22 10ZM24.9 10L22.8 5.64L20.67 5.64L20.67 10L19.32 10L19.32 -0.67L22.45 -0.67Q23.2 -0.65 23.86 -0.46Q24.52 -0.26 25.01 0.14Q25.15 0.24 25.26 0.37Q25.58 0.69 25.79 1.13Q26.07 1.73 26.07 2.53Q26.07 3.05 25.92 3.48Q25.78 3.88 25.55 4.21Q25.53 4.24 25.51 4.27Q25.49 4.29 25.46 4.32Q25.21 4.64 24.88 4.89Q24.51 5.16 24.07 5.35L26.33 9.91L26.33 10L24.9 10ZM34.55 10L31.33 5.04L30.14 6.39L30.14 10L28.76 10L28.76 -0.67L30.14 -0.67L30.14 4.54L31.18 3.25L34.3 -0.67L35.95 -0.67L32.22 4L36.2 10L34.55 10ZM15.37 5.28L15.37 4.05Q15.36 3.67 15.32 3.25Q15.27 2.84 15.17 2.43Q15.06 2.03 14.88 1.66Q14.71 1.29 14.44 1Q14.37 0.92 14.28 0.85Q14.07 0.67 13.82 0.56Q13.46 0.39 12.99 0.39Q12.52 0.39 12.16 0.56Q11.89 0.69 11.68 0.87Q11.6 0.94 11.54 1.01Q11.27 1.29 11.1 1.66Q11.08 1.7 11.06 1.74Q10.91 2.08 10.82 2.44Q10.71 2.85 10.66 3.26Q10.61 3.67 10.61 4.05L10.61 5.28Q10.61 5.65 10.66 6.07Q10.7 6.39 10.77 6.7Q10.79 6.8 10.82 6.89Q10.93 7.3 11.1 7.67Q11.28 8.05 11.54 8.33Q11.64 8.43 11.75 8.52Q11.94 8.67 12.17 8.78Q12.52 8.95 13 8.95Q13.48 8.95 13.84 8.78Q14.09 8.66 14.29 8.49Q14.38 8.42 14.47 8.33Q14.72 8.05 14.89 7.68Q15.07 7.31 15.18 6.9Q15.19 6.85 15.2 6.8Q15.28 6.44 15.32 6.08Q15.36 5.66 15.37 5.28ZM20.67 0.44L20.67 4.53L22.49 4.53Q22.94 4.52 23.34 4.39Q23.72 4.26 24.01 4.03Q24.03 4.01 24.06 4Q24.14 3.92 24.22 3.84Q24.41 3.63 24.53 3.37Q24.71 3 24.71 2.52Q24.71 2 24.54 1.62Q24.41 1.33 24.21 1.11Q24.14 1.04 24.07 0.97Q23.77 0.72 23.36 0.58Q22.94 0.45 22.45 0.44L20.67 0.44Z" fill="#191919" fill-opacity="1.000000" fill-rule="evenodd"/>
</svg>
